<?xml version="1.0" standalone="no"?>
<!DOCTYPE svg PUBLIC "-//W3C//DTD SVG 20010904//EN"
 "http://www.w3.org/TR/2001/REC-SVG-20010904/DTD/svg10.dtd">
<svg version="1.0" xmlns="http://www.w3.org/2000/svg"
 width="745.000000pt" height="745.000000pt" viewBox="0 0 745.000000 745.000000"
 preserveAspectRatio="xMidYMid meet">
<metadata>
Created by potrace 1.11, written by Peter Selinger 2001-2013
</metadata>
<g transform="translate(0.000000,745.000000) scale(0.100000,-0.100000)"
fill="#000000" stroke="none">
<path d="M5605 7003 c-184 -53 -337 -102 -347 -111 -18 -19 -29 -57 -139 -492
-99 -391 -108 -422 -120 -415 -5 4 -9 -1 -9 -10 0 -9 -4 -13 -10 -10 -5 3 -10
1 -10 -5 0 -6 -5 -8 -12 -4 -8 5 -9 2 -5 -10 4 -10 3 -15 -3 -11 -5 3 -18 -3
-29 -14 -11 -11 -22 -17 -25 -14 -3 4 -6 1 -6 -5 0 -7 -7 -12 -16 -12 -9 0
-12 -5 -8 -12 5 -8 2 -9 -9 -5 -9 3 -19 1 -23 -5 -5 -7 -2 -8 7 -3 12 8 12 6
0 -8 -8 -10 -16 -15 -19 -12 -3 2 -12 -4 -21 -14 -27 -30 -56 -42 -70 -28 -10
9 -11 8 -5 -8 7 -18 6 -18 -9 -6 -9 7 -14 18 -10 25 4 6 -2 4 -12 -4 -10 -8
-16 -10 -12 -4 4 7 0 15 -9 18 -10 4 -13 2 -9 -7 4 -6 0 -4 -8 5 -8 10 -17 14
-21 10 -4 -4 -13 0 -19 8 -12 15 -29 22 -54 23 -7 0 -13 4 -13 9 0 4 -9 8 -20
8 -11 0 -20 4 -20 10 0 5 -7 6 -17 3 -11 -5 -14 -3 -8 6 6 10 3 11 -15 1 -12
-7 -20 -8 -17 -3 3 5 2 15 -4 23 -5 8 -9 10 -9 4 0 -17 -30 -12 -30 5 0 14 -2
14 -10 1 -5 -8 -10 -10 -10 -4 0 7 -10 14 -22 17 -17 5 -19 9 -9 20 9 12 8 16
-6 21 -14 6 -15 9 -4 15 10 7 10 10 1 16 -9 6 -9 10 1 16 11 7 11 9 1 9 -10 0
-10 5 -1 23 11 19 10 20 -2 10 -12 -10 -15 -8 -16 8 -1 10 3 19 8 19 5 0 1 12
-8 27 -10 15 -12 24 -5 20 6 -5 12 -4 12 2 0 6 -4 11 -9 11 -5 0 -8 12 -5 26
3 19 1 24 -8 18 -10 -6 -11 -5 -1 7 10 12 10 18 1 27 -16 16 -20 44 -5 35 7
-4 6 1 -2 10 -11 14 -11 17 0 17 8 0 6 6 -7 16 -10 8 -14 13 -7 10 6 -4 14 -2
18 4 3 5 -2 10 -12 10 -15 0 -16 2 -3 10 8 5 10 10 4 10 -17 0 -25 28 -12 36
7 5 8 2 3 -6 -6 -9 -4 -11 4 -6 9 6 8 13 -6 29 -10 11 -12 17 -6 13 13 -7 8
19 -8 39 -4 6 -4 17 1 25 5 8 2 22 -7 37 -15 22 -14 23 3 17 17 -5 17 -4 2 5
-9 6 -14 19 -11 30 3 10 0 22 -7 26 -8 5 -8 10 1 21 6 8 7 14 2 14 -8 0 -13
32 -16 92 -1 9 -6 14 -11 11 -5 -4 -7 1 -3 10 4 10 2 16 -6 14 -7 -1 -11 6 -9
17 2 10 -1 15 -7 12 -5 -4 -14 2 -20 11 -6 11 -11 13 -11 5 0 -10 -4 -9 -16 2
-8 9 -20 14 -25 11 -5 -4 -9 -3 -9 2 0 4 -99 8 -220 9 -149 0 -220 -3 -220
-10 0 -6 -5 -4 -10 4 -9 13 -11 13 -20 0 -5 -8 -10 -10 -10 -5 0 15 -50 17
-50 2 0 -7 -3 -8 -8 -2 -10 15 -142 16 -142 2 0 -7 -4 -6 -10 3 -9 13 -11 13
-20 0 -5 -8 -10 -10 -10 -5 0 15 -50 17 -50 2 0 -7 -3 -8 -8 -2 -10 15 -142
16 -142 2 0 -7 -4 -6 -10 3 -9 13 -11 13 -20 0 -5 -8 -10 -10 -10 -4 0 16 -60
10 -71 -7 -5 -8 -9 -10 -9 -5 0 6 -7 1 -16 -10 -8 -10 -12 -12 -8 -4 7 13 5
13 -9 1 -9 -7 -14 -17 -11 -22 3 -5 0 -9 -5 -9 -6 0 -11 -7 -11 -16 0 -8 -4
-13 -8 -10 -5 3 -9 -1 -9 -9 0 -8 5 -11 10 -8 6 4 3 -4 -6 -16 -8 -13 -13 -30
-10 -37 3 -8 -1 -14 -8 -14 -11 0 -11 -3 1 -10 8 -5 10 -10 4 -10 -7 0 -14 -9
-17 -20 -3 -11 -1 -20 5 -20 5 0 2 -7 -6 -16 -21 -20 -20 -28 1 -20 16 6 16 6
0 -12 -20 -22 -23 -46 -4 -37 6 4 1 -3 -13 -15 -14 -12 -20 -19 -14 -16 7 3
12 -4 12 -19 0 -14 -5 -22 -10 -19 -6 4 -5 -3 1 -15 10 -17 9 -22 -4 -27 -8
-3 -15 -10 -15 -16 0 -5 5 -6 10 -3 6 3 10 1 10 -4 0 -6 -5 -11 -10 -11 -7 0
-7 -7 1 -21 9 -17 8 -20 -2 -14 -8 6 -11 4 -7 -6 3 -8 2 -23 -2 -34 -4 -11 -3
-26 4 -34 9 -12 8 -13 -3 -6 -11 6 -13 4 -8 -8 3 -9 0 -18 -9 -21 -8 -3 -14
-11 -13 -18 0 -10 2 -10 6 0 2 6 9 12 14 12 6 0 6 -7 0 -19 -6 -10 -8 -21 -4
-24 3 -4 0 -13 -7 -22 -8 -10 -9 -15 -1 -15 6 0 11 -5 11 -11 0 -6 -7 -8 -16
-5 -9 3 -12 2 -9 -5 15 -23 12 -59 -4 -60 -10 0 -12 -2 -3 -6 16 -6 16 -43 0
-43 -9 0 -8 -4 2 -10 13 -9 13 -10 0 -10 -9 0 -11 -3 -5 -8 6 -4 11 -14 13
-22 2 -8 1 -12 -3 -8 -4 4 -14 0 -22 -8 -8 -8 -20 -11 -26 -7 -6 4 -8 1 -5 -8
4 -10 -1 -15 -13 -16 -11 -1 -17 2 -14 7 3 5 -7 3 -21 -5 -15 -8 -32 -11 -37
-8 -6 3 -7 1 -3 -5 4 -7 1 -12 -8 -12 -9 0 -16 -5 -16 -11 0 -8 -6 -7 -17 2
-11 10 -14 10 -9 2 7 -13 -4 -17 -31 -14 -7 1 -10 -4 -7 -12 3 -10 -3 -13 -25
-12 -18 1 -28 -2 -24 -8 4 -6 -1 -8 -11 -4 -11 5 -15 3 -10 -5 5 -8 2 -9 -10
-5 -9 4 -15 3 -12 -1 3 -4 -5 -14 -17 -22 -20 -12 -21 -12 -8 4 12 14 12 16
-2 10 -8 -3 -18 -12 -21 -20 -3 -8 -10 -14 -16 -14 -6 0 -8 4 -5 10 3 6 -1 7
-9 4 -9 -3 -16 -1 -16 6 0 6 -3 9 -7 7 -9 -5 -34 18 -28 25 2 2 -6 10 -18 17
-19 12 -21 12 -12 0 6 -8 3 -7 -6 3 -9 9 -19 14 -23 11 -6 -6 -10 13 -7 31 1
5 -6 3 -16 -4 -10 -8 -15 -11 -11 -6 8 9 -15 36 -30 36 -5 0 -17 11 -26 24 -8
14 -26 28 -38 31 -13 4 -33 19 -46 34 -13 14 -20 19 -16 11 3 -8 -10 3 -31 25
-21 22 -32 31 -24 20 10 -13 3 -11 -24 9 -20 16 -37 33 -37 38 0 5 -4 6 -10 3
-5 -3 -10 1 -10 9 0 8 -5 18 -12 22 -7 4 -8 3 -4 -4 5 -8 2 -10 -8 -6 -9 3
-13 10 -10 15 3 5 -2 9 -10 9 -8 0 -17 9 -21 19 -4 13 -11 18 -22 14 -12 -5
-15 -2 -10 10 4 11 2 14 -8 10 -8 -3 -17 2 -21 10 -3 9 -12 13 -20 10 -8 -3
-14 1 -14 10 0 10 -7 15 -19 12 -11 -2 -22 3 -25 12 -5 12 -9 13 -21 3 -10 -8
-15 -9 -15 -2 0 6 -7 9 -15 6 -8 -4 -13 -10 -10 -14 3 -5 -5 -6 -17 -2 -16 4
-19 2 -13 -8 6 -9 4 -11 -5 -5 -8 5 -18 1 -26 -10 -8 -10 -20 -15 -29 -11 -9
3 -13 2 -10 -4 3 -6 1 -10 -5 -10 -6 0 -8 -4 -5 -10 3 -5 -1 -10 -9 -10 -8 0
-20 -8 -25 -17 -6 -10 -11 -13 -11 -8 0 6 -9 -1 -20 -15 -17 -21 -19 -22 -15
-5 3 11 -1 7 -9 -10 -8 -16 -15 -26 -16 -22 0 4 -9 3 -21 -3 -12 -7 -18 -18
-15 -26 3 -9 1 -12 -4 -9 -6 3 -10 1 -10 -5 0 -6 -4 -8 -10 -5 -5 3 -10 -1
-10 -9 0 -15 -12 -21 -33 -17 -5 1 -6 -2 -3 -7 3 -5 -2 -18 -10 -28 -9 -10
-13 -12 -9 -4 4 10 2 9 -8 -2 -8 -10 -20 -18 -26 -18 -7 0 -10 -4 -7 -9 3 -4
-8 -19 -25 -31 -16 -13 -28 -29 -25 -36 3 -8 -2 -11 -16 -9 -11 3 -18 2 -15
-1 2 -3 -10 -20 -29 -38 -19 -18 -31 -35 -28 -39 3 -3 -3 -8 -14 -11 -11 -4
-22 -16 -25 -27 -3 -12 -10 -18 -16 -14 -10 5 -15 -7 -12 -27 0 -4 -6 -5 -14
-2 -10 4 -15 0 -15 -10 0 -9 -11 -22 -25 -28 -14 -6 -25 -15 -25 -20 0 -5 6
-6 13 -3 6 4 3 -1 -7 -9 -11 -9 -23 -16 -28 -16 -4 0 -8 -7 -8 -15 0 -9 -7
-18 -16 -22 -8 -3 -13 -12 -10 -19 3 -8 2 -13 -2 -13 -20 3 -33 -2 -27 -11 3
-5 -1 -10 -11 -10 -14 0 -15 -2 -3 -17 8 -9 10 -14 4 -12 -9 5 -42 -21 -47
-38 -2 -5 -7 -7 -11 -5 -4 1 -3 -6 3 -17 12 -24 13 -34 1 -27 -5 3 -12 -1 -15
-10 -3 -8 -2 -12 4 -9 14 9 12 -8 -3 -24 -9 -11 -9 -13 1 -7 11 6 17 -5 13
-26 0 -5 4 -8 9 -8 6 0 10 -7 10 -16 0 -8 5 -12 10 -9 6 3 10 -3 10 -14 0 -11
14 -29 30 -41 17 -12 28 -26 25 -31 -4 -5 0 -9 8 -9 8 0 20 -13 27 -30 12 -28
22 -35 44 -31 5 1 4 -4 -2 -12 -9 -11 -7 -18 12 -35 13 -11 28 -17 32 -14 5 4
2 -1 -5 -11 -12 -15 -12 -17 4 -10 15 5 17 3 11 -12 -4 -11 -4 -16 0 -12 10 9
45 -33 37 -46 -3 -5 -2 -8 3 -5 5 3 17 -3 27 -14 9 -10 14 -18 10 -18 -3 0 4
-9 16 -19 16 -14 18 -21 9 -24 -9 -4 -8 -6 3 -6 9 -1 23 -9 30 -18 10 -11 10
-14 2 -9 -7 4 -13 2 -13 -3 0 -6 5 -11 11 -11 6 0 17 -7 25 -15 9 -8 13 -15 9
-15 -4 0 0 -7 7 -15 28 -31 38 -44 38 -51 0 -4 10 -15 22 -25 11 -11 18 -19
13 -19 -4 0 -2 -7 5 -15 11 -13 10 -14 -4 -9 -9 4 -16 3 -15 -2 4 -25 -2 -54
-11 -49 -6 3 -10 -3 -10 -14 0 -11 -5 -23 -11 -26 -6 -4 -8 -12 -6 -19 5 -14
-28 -58 -36 -49 -4 3 -5 -3 -3 -13 6 -29 -12 -67 -26 -58 -8 5 -7 0 2 -11 11
-14 12 -17 1 -11 -9 6 -12 5 -9 -5 3 -8 -4 -29 -14 -47 -11 -20 -13 -30 -6
-26 9 6 9 3 -1 -9 -7 -9 -10 -17 -5 -17 20 -1 -23 -20 -44 -20 -13 0 -21 -3
-19 -7 3 -5 -19 -8 -49 -8 -41 0 -54 -4 -54 -15 0 -10 -3 -11 -8 -4 -4 6 -24
10 -44 10 -30 -1 -35 -3 -25 -15 10 -12 9 -12 -11 -2 -20 11 -26 10 -39 -6 -8
-10 -12 -12 -8 -5 4 8 -1 12 -15 12 -13 0 -19 -4 -14 -11 4 -8 1 -8 -12 -1
-20 10 -47 5 -40 -7 3 -4 -1 -8 -9 -8 -8 0 -12 4 -9 9 7 11 -7 10 -26 -1 -8
-6 -19 -7 -25 -3 -16 10 -36 11 -29 1 3 -5 10 -6 16 -3 6 4 8 2 5 -4 -8 -12
-25 -11 -46 2 -10 6 -12 5 -7 -2 4 -7 2 -12 -3 -12 -6 0 -11 6 -12 13 0 6 -4
3 -9 -8 -5 -11 -9 -15 -9 -8 -1 7 -8 10 -16 7 -8 -4 -12 -11 -8 -18 4 -6 -1
-5 -10 3 -11 9 -21 10 -29 4 -7 -5 -25 -8 -41 -7 -15 2 -25 -1 -22 -7 4 -5 -3
-5 -18 0 -18 7 -30 6 -43 -4 -13 -9 -23 -10 -31 -3 -9 7 -13 7 -13 -2 0 -6 -6
-10 -12 -7 -7 2 -19 -3 -26 -12 -10 -12 -12 -13 -6 -1 7 12 5 13 -8 3 -8 -7
-18 -9 -23 -5 -4 4 -3 -3 3 -14 10 -18 9 -21 -6 -20 -9 0 -16 -5 -15 -11 2 -7
-2 -13 -8 -13 -5 0 -7 -4 -4 -10 3 -5 1 -10 -5 -10 -6 0 -8 -4 -5 -10 3 -5 0
-10 -7 -10 -10 0 -10 -2 1 -9 9 -6 10 -11 2 -15 -6 -4 -11 -12 -11 -17 0 -6 5
-7 12 -3 7 5 8 3 3 -6 -12 -20 -15 -60 -4 -60 6 0 7 -5 3 -12 -9 -13 -12 -188
-3 -188 3 0 6 -7 6 -15 0 -8 -4 -12 -9 -9 -4 3 -8 1 -8 -5 0 -5 5 -13 10 -16
6 -4 7 -11 4 -17 -11 -18 -13 -58 -3 -58 6 0 7 -5 3 -12 -9 -14 -12 -108 -4
-108 4 0 7 -7 7 -15 0 -8 -4 -12 -9 -9 -4 3 -8 1 -8 -5 0 -5 5 -13 10 -16 6
-4 7 -11 4 -17 -12 -20 -13 -58 -1 -58 8 0 8 -3 2 -8 -13 -9 -18 -32 -7 -32 5
0 9 -7 9 -15 0 -8 -4 -12 -9 -9 -4 3 -8 1 -8 -5 0 -5 5 -13 10 -16 6 -4 7 -11
4 -17 -10 -16 -13 -58 -5 -58 4 0 8 -7 8 -15 0 -8 -4 -12 -9 -9 -4 3 -8 1 -8
-5 0 -5 5 -13 10 -16 7 -4 7 -13 0 -24 -6 -12 -5 -22 1 -28 8 -8 7 -13 0 -17
-6 -4 -11 -12 -11 -17 0 -6 4 -7 10 -4 6 4 7 -2 1 -18 -7 -19 -5 -27 10 -37
14 -11 15 -16 6 -22 -8 -5 -7 -8 6 -8 9 0 16 -3 15 -7 -3 -8 38 -53 48 -53 3
0 2 6 -1 13 -4 6 1 3 9 -7 9 -11 16 -14 16 -7 0 7 5 9 10 6 6 -4 7 -11 4 -17
-4 -6 2 -6 15 1 16 9 21 9 21 0 0 -9 3 -9 14 0 10 8 16 9 21 1 3 -5 19 -10 34
-10 15 0 33 -6 40 -12 11 -10 13 -10 7 0 -4 6 -2 12 3 12 6 0 11 -4 11 -10 0
-5 5 -10 11 -10 5 0 7 6 3 13 -5 8 -2 8 9 -2 9 -7 17 -10 17 -7 0 4 9 2 19 -4
14 -7 21 -6 24 3 4 9 6 9 6 0 1 -7 8 -10 18 -6 11 5 14 3 8 -6 -6 -10 -3 -11
15 -1 15 8 20 8 16 1 -4 -6 0 -11 9 -11 10 0 13 5 9 13 -6 8 -3 8 9 -1 9 -8
32 -14 52 -14 20 0 35 -5 35 -11 0 -7 5 -5 10 3 5 8 10 10 10 4 0 -17 28 -25
36 -12 5 7 2 8 -6 3 -9 -6 -11 -4 -5 5 6 10 11 9 22 -5 7 -11 13 -14 13 -8 0
6 9 9 20 6 11 -3 20 -9 20 -15 0 -5 8 -4 19 2 14 7 21 6 24 -3 4 -9 8 -9 15 2
7 10 11 10 14 1 2 -8 22 -13 46 -14 23 0 42 -4 42 -8 0 -5 5 -8 11 -8 5 0 7 6
3 13 -5 9 -4 9 6 0 7 -6 19 -9 26 -6 10 4 12 0 8 -11 -4 -10 0 -18 11 -22 13
-5 14 -9 3 -15 -10 -7 -10 -9 0 -9 6 0 12 -5 12 -11 0 -5 -6 -7 -12 -4 -7 4
-6 1 3 -7 9 -7 15 -23 14 -35 -1 -12 2 -20 7 -17 7 5 13 -18 9 -39 -1 -5 3 -6
8 -3 5 3 12 -1 15 -10 9 -23 8 -26 -6 -18 -7 4 -5 -2 4 -13 10 -11 18 -25 18
-31 0 -7 6 -12 13 -12 8 0 7 -4 -3 -10 -14 -9 -7 -15 14 -11 5 1 6 -5 3 -14
-4 -8 -2 -15 4 -15 6 0 8 -4 5 -9 -3 -5 1 -14 10 -21 8 -7 13 -19 10 -27 -3
-8 -1 -11 4 -8 6 3 10 -1 10 -9 0 -9 8 -16 18 -17 11 -1 9 -4 -8 -9 -14 -4
-19 -8 -12 -9 6 -1 12 -8 12 -17 0 -9 -5 -12 -12 -8 -8 5 -9 2 -5 -10 4 -9 3
-14 -2 -11 -12 7 -42 -35 -35 -47 3 -4 -2 -8 -10 -8 -9 0 -15 -3 -14 -8 4 -14
-23 -52 -37 -52 -8 0 -15 -9 -15 -21 0 -13 -4 -18 -12 -13 -8 5 -9 2 -5 -10 5
-13 3 -17 -7 -13 -8 3 -17 -1 -20 -9 -4 -10 -2 -13 7 -8 13 7 -7 -16 -68 -78
-23 -25 -30 -36 -18 -33 10 3 3 -2 -14 -11 -18 -10 -33 -22 -33 -27 0 -5 8 -3
17 4 9 8 7 0 -7 -18 -24 -33 -36 -43 -25 -21 4 7 0 4 -9 -7 -8 -11 -20 -26
-27 -33 -6 -7 -8 -19 -5 -27 3 -9 0 -12 -9 -9 -9 4 -19 -4 -26 -20 -7 -14 -17
-23 -22 -19 -6 4 -8 0 -4 -10 3 -9 0 -20 -7 -24 -7 -5 -16 -16 -19 -26 -4 -10
-12 -15 -18 -11 -8 4 -8 1 -1 -12 11 -23 5 -47 -11 -37 -8 5 -8 2 0 -8 10 -12
10 -18 0 -29 -7 -8 -7 -10 -1 -7 11 6 29 -45 25 -67 -1 -5 5 -6 13 -3 9 4 15
3 15 -1 -4 -21 2 -42 10 -38 5 3 11 -4 14 -15 4 -13 10 -18 18 -13 8 4 10 3 5
-5 -5 -7 5 -23 23 -38 17 -15 31 -33 31 -41 0 -7 4 -10 10 -7 5 3 10 -1 10 -9
0 -8 5 -18 12 -22 7 -4 8 -3 4 4 -5 8 -2 10 8 6 15 -6 32 -41 28 -57 -1 -5 1
-6 6 -3 11 6 43 -30 34 -39 -4 -4 -2 -6 3 -5 20 4 35 0 33 -10 -2 -5 15 -26
37 -46 22 -20 31 -31 20 -23 -19 13 -19 13 -6 -4 8 -10 21 -15 29 -12 10 3 12
0 8 -10 -4 -10 1 -15 15 -15 11 0 18 -3 16 -7 -6 -10 19 -34 27 -26 3 4 6 0 6
-8 0 -8 14 -26 31 -40 l31 -25 -56 -215 c-31 -118 -79 -303 -108 -413 -49
-188 -51 -199 -34 -212 13 -9 25 -10 42 -3 14 5 161 47 327 95 166 47 310 93
319 102 10 10 38 100 68 217 84 330 112 425 121 419 5 -3 9 2 9 11 0 9 5 13
10 10 6 -3 10 -1 10 5 0 6 4 8 10 5 5 -3 15 3 22 15 7 11 17 20 22 20 5 0 17
9 27 21 9 11 21 21 26 22 4 1 7 6 5 10 -1 5 2 6 7 3 5 -4 14 1 19 10 5 9 12
15 15 15 21 -3 27 1 27 16 0 9 3 14 6 10 3 -3 17 6 30 20 13 14 27 24 30 21 3
-3 16 4 30 17 30 28 45 27 80 -6 15 -13 24 -18 20 -11 -4 6 -2 12 3 12 6 0 11
-5 11 -11 0 -5 5 -7 10 -4 6 3 10 1 10 -5 0 -6 5 -8 10 -5 6 3 10 -1 10 -11 0
-13 3 -14 15 -4 12 10 16 9 21 -4 3 -9 10 -13 15 -11 5 3 20 -1 33 -10 14 -9
30 -14 35 -10 6 3 16 -3 23 -14 11 -18 13 -18 25 -3 12 16 13 16 7 0 -7 -20
12 -25 19 -5 3 7 6 5 6 -5 1 -11 6 -15 15 -12 8 3 17 0 21 -5 3 -6 10 -9 14
-7 3 3 7 -4 7 -14 0 -10 -5 -16 -11 -12 -5 3 -4 -1 3 -10 7 -9 14 -32 15 -52
1 -20 7 -36 12 -36 6 0 3 -5 -5 -10 -12 -8 -12 -10 -1 -10 11 0 11 -3 0 -17
-8 -9 -9 -14 -2 -10 16 10 22 -14 11 -37 -7 -13 -7 -16 1 -12 7 5 10 -3 7 -23
-2 -17 1 -31 6 -31 5 0 6 -5 3 -10 -4 -6 -1 -18 7 -27 11 -15 11 -16 -6 -10
-16 6 -17 5 -7 -7 7 -8 10 -20 6 -26 -4 -6 -3 -10 2 -9 22 4 25 -2 7 -16 -10
-8 -14 -15 -9 -14 22 3 27 -2 15 -16 -9 -11 -9 -15 -1 -15 7 0 9 -4 6 -10 -3
-5 0 -10 7 -10 10 0 10 -2 1 -8 -7 -5 -9 -13 -3 -21 4 -8 6 -21 2 -29 -4 -11
-1 -13 7 -7 10 6 11 3 2 -14 -9 -16 -9 -21 1 -21 10 0 10 -2 0 -9 -11 -7 -11
-9 2 -14 13 -5 14 -12 6 -33 -9 -22 -8 -25 5 -20 11 4 14 2 8 -7 -12 -20 -12
-37 0 -37 7 0 5 -5 -3 -10 -10 -7 -11 -10 -2 -10 8 0 11 -11 9 -35 -2 -19 0
-32 4 -29 5 3 9 -1 9 -10 0 -8 -6 -17 -12 -19 -8 -4 -7 -6 4 -6 10 -1 15 -8
14 -18 -2 -10 5 -25 15 -34 10 -9 16 -19 12 -23 -3 -3 1 -6 11 -6 10 0 24 -7
32 -15 13 -13 88 -15 532 -14 289 0 527 5 540 10 13 5 21 13 17 19 -3 5 0 7 8
4 8 -3 18 0 23 7 5 8 3 10 -5 4 -10 -6 -11 -3 -2 14 7 11 16 21 22 21 6 0 7 5
4 10 -3 6 -1 10 5 10 6 0 8 5 5 10 -3 6 -2 10 2 10 5 0 8 16 8 35 -1 20 2 38
7 41 5 3 6 10 3 15 -4 5 -2 9 2 9 5 0 8 16 8 35 -1 26 2 34 12 31 11 -4 11 -1
2 15 -8 17 -7 24 8 36 10 8 13 12 7 9 -7 -3 -15 1 -18 10 -3 8 -2 13 3 10 5
-3 12 1 15 10 4 10 2 13 -7 8 -9 -5 -9 -4 1 7 14 16 16 33 2 24 -6 -3 -10 -1
-10 4 0 6 5 11 11 11 7 0 10 15 7 39 -2 22 -1 39 2 39 18 -1 21 4 10 17 -10
12 -10 15 0 15 10 0 10 3 1 14 -9 11 -9 16 0 22 8 5 9 3 4 -6 -5 -8 -4 -11 3
-6 7 4 8 17 2 36 -5 18 -5 28 0 25 5 -3 7 8 5 25 -2 17 1 30 7 30 7 0 6 5 -1
14 -8 10 -9 16 -1 21 5 3 10 21 10 38 0 18 4 39 10 47 5 9 5 19 -1 26 -7 8 -6
14 1 19 8 5 7 11 -2 23 -11 13 -11 14 1 7 11 -6 13 -4 8 8 -4 12 -2 14 10 10
11 -4 14 -2 9 5 -5 8 -2 10 8 6 10 -4 16 -1 16 7 0 11 3 11 10 -1 8 -13 10
-12 10 3 0 20 11 22 29 5 8 -7 11 -8 8 -3 -3 6 3 17 15 24 16 10 19 10 12 -1
-6 -10 -5 -11 8 -1 8 7 18 10 21 6 4 -3 7 -1 7 6 0 8 7 11 15 7 9 -3 18 1 22
10 3 8 12 13 19 10 8 -3 14 -1 14 5 0 6 5 7 10 4 6 -3 10 2 10 12 0 15 2 16
10 3 8 -13 14 -8 12 11 -1 3 5 6 13 6 8 0 11 -5 8 -11 -4 -6 2 -4 13 4 41 32
61 39 74 27 10 -9 11 -9 6 1 -12 21 5 13 32 -16 15 -15 39 -33 54 -41 15 -8
25 -18 22 -23 -5 -7 9 -12 28 -9 4 0 10 -8 13 -19 4 -11 11 -18 16 -15 5 4 9
1 9 -5 0 -7 7 -9 17 -6 10 4 14 4 10 0 -7 -7 30 -44 45 -44 4 0 8 -8 8 -17 0
-15 2 -16 10 -3 8 13 10 12 10 -2 0 -17 12 -23 34 -19 5 1 6 -6 2 -15 -6 -14
-4 -15 9 -4 9 7 15 9 14 4 -3 -18 1 -37 7 -31 7 6 18 -2 69 -50 22 -21 35 -28
39 -20 2 7 5 4 5 -6 1 -10 6 -15 11 -12 6 3 10 -2 10 -11 0 -10 3 -15 6 -11 3
3 16 -3 27 -14 12 -11 27 -17 35 -14 7 2 10 0 7 -5 -4 -6 1 -17 9 -26 9 -8 16
-11 16 -5 0 6 9 2 20 -9 11 -11 28 -20 38 -21 9 0 31 -1 49 -2 17 -1 29 2 26
6 -3 5 3 7 13 5 11 -2 18 2 17 9 -2 7 3 10 11 7 8 -3 17 0 21 5 3 6 11 8 17 5
7 -5 9 -1 5 9 -4 12 -1 15 14 12 11 -2 17 0 14 6 -4 5 -1 9 5 9 6 0 9 4 5 9
-3 6 3 8 14 6 15 -3 18 0 14 12 -4 11 -2 14 5 9 7 -4 12 -2 12 4 0 6 4 9 9 5
5 -3 12 4 16 15 4 11 11 18 16 15 5 -4 14 5 21 19 6 14 18 26 25 26 8 0 11 5
8 10 -4 6 -3 9 2 8 11 -4 63 37 63 49 0 6 10 18 22 29 15 12 19 14 13 4 -6 -9
-2 -7 7 3 10 11 15 24 11 30 -3 5 -1 7 5 3 12 -7 62 35 62 52 0 6 5 14 12 18
7 5 8 3 3 -6 -6 -9 -4 -11 4 -6 7 5 10 14 7 22 -3 8 -2 13 2 13 20 -3 31 3 37
20 4 13 12 18 21 14 8 -3 14 -2 13 3 -4 23 3 35 25 45 16 8 22 17 19 27 -4 9
-2 13 4 9 6 -4 14 0 17 9 3 8 11 12 17 8 7 -4 9 -3 5 4 -3 6 4 18 16 26 12 9
18 16 13 16 -5 0 4 12 20 28 16 15 33 26 38 24 5 -1 6 2 2 8 -3 5 -1 18 5 27
11 17 11 17 6 0 -3 -11 -2 -15 4 -12 6 3 10 13 10 21 0 8 5 14 11 14 5 0 8 4
4 9 -3 6 4 15 15 21 11 6 18 15 15 21 -4 5 -1 9 5 9 6 0 8 5 5 10 -3 6 1 13 9
16 9 3 13 10 10 15 -3 5 -11 7 -17 3 -7 -3 -3 2 7 10 12 9 14 16 7 16 -8 0
-10 7 -6 20 4 13 2 20 -7 20 -11 0 -11 2 0 9 11 7 11 9 -2 14 -9 4 -16 14 -16
22 0 10 -5 13 -12 9 -8 -5 -9 -2 -5 9 4 11 1 17 -8 17 -8 0 -15 9 -15 21 0 11
-4 17 -10 14 -5 -3 -10 0 -10 8 0 8 -8 21 -17 28 -16 13 -17 12 -4 -4 12 -15
12 -17 -3 -11 -11 4 -16 14 -13 25 3 11 1 17 -3 14 -5 -3 -14 4 -20 15 -6 11
-7 20 -3 20 4 0 -3 6 -17 13 -14 7 -29 22 -35 35 -5 12 -13 22 -17 22 -5 0 -8
9 -8 20 0 11 -4 20 -10 20 -15 0 -52 40 -37 40 6 0 4 5 -6 11 -10 6 -14 15
-10 22 4 7 -1 6 -10 -2 -15 -12 -17 -12 -11 3 3 9 1 16 -5 16 -6 0 -11 7 -11
15 0 8 -5 15 -11 15 -5 0 -7 5 -3 12 4 6 3 8 -3 5 -6 -4 -17 1 -24 10 -12 14
-12 16 0 8 9 -5 7 2 -5 17 -10 14 -22 24 -26 21 -5 -2 -8 3 -8 11 0 9 -4 16
-10 16 -5 0 -10 7 -10 16 0 8 -4 12 -10 9 -5 -3 -10 3 -10 14 0 12 -4 21 -10
21 -5 0 -10 10 -10 23 0 18 -2 19 -10 7 -7 -11 -9 -7 -7 17 1 17 4 29 6 27 8
-8 54 79 54 102 0 13 3 21 8 18 5 -3 9 1 9 9 0 8 7 20 15 27 8 7 15 17 15 23
0 6 -7 2 -16 -9 -15 -18 -15 -18 -4 3 5 12 15 25 20 28 6 3 8 17 6 31 -3 14
-1 22 5 19 5 -4 9 -1 9 5 0 6 4 8 10 5 6 -3 7 1 4 10 -4 8 0 23 7 32 8 9 9 14
3 10 -6 -3 -11 0 -11 8 0 8 4 12 8 9 4 -2 13 5 19 16 8 16 15 18 24 11 9 -7
16 -7 26 2 10 10 11 9 5 -3 -7 -12 -6 -13 6 -3 8 6 30 11 48 11 18 -1 37 5 42
13 7 12 9 12 9 0 0 -11 3 -11 15 -1 11 9 15 9 15 1 0 -7 5 -9 10 -6 6 4 7 12
3 18 -4 7 0 6 10 -2 13 -10 17 -10 17 -1 0 10 3 10 15 0 12 -10 15 -10 15 0 0
8 3 10 7 7 3 -4 13 -1 21 6 13 10 14 9 7 -3 -7 -12 -4 -12 17 2 20 13 28 14
38 5 10 -9 14 -9 17 1 4 9 8 10 18 2 10 -8 15 -8 21 1 5 8 3 9 -6 4 -9 -6 -11
-4 -5 4 5 9 10 10 18 2 7 -7 15 -7 26 2 12 10 13 9 6 -3 -6 -12 -5 -13 6 -2
16 14 33 16 24 2 -3 -6 1 -7 9 -4 9 3 13 11 10 16 -4 6 2 6 14 -1 16 -8 21 -7
26 5 5 13 9 14 21 4 12 -10 15 -10 15 1 0 11 2 11 10 -1 5 -8 10 -10 10 -3 0
12 17 12 37 0 7 -4 16 0 21 10 9 15 12 15 28 3 10 -8 15 -10 11 -4 -4 7 0 15
9 18 10 4 13 2 8 -7 -5 -8 -2 -7 9 2 14 11 17 11 17 0 0 -11 2 -11 9 0 8 12
12 13 25 1 14 -11 16 -10 10 4 -4 9 -3 16 2 14 5 -1 19 3 30 10 12 6 25 8 29
4 5 -4 5 -1 1 6 -4 6 -3 12 1 12 5 0 14 9 21 21 11 17 11 20 0 13 -7 -4 -5 2
5 13 16 18 17 58 17 536 0 485 -1 517 -17 518 -11 0 -13 3 -6 6 16 6 -13 53
-33 53 -7 0 -16 5 -20 12 -5 7 -3 8 6 3 8 -5 11 -4 7 2 -4 6 -18 9 -32 8 -14
-2 -25 1 -25 6 0 6 -6 6 -17 0 -13 -7 -23 -5 -35 6 -13 12 -18 12 -18 3 0 -9
-6 -8 -24 4 -16 10 -27 12 -31 5 -5 -7 -11 -6 -21 2 -7 6 -21 9 -29 5 -8 -3
-15 -1 -15 4 0 6 -5 10 -11 10 -5 0 -7 -6 -3 -12 6 -9 3 -9 -9 0 -9 8 -42 15
-74 17 -32 1 -59 8 -61 14 -3 8 -9 6 -19 -6 -8 -10 -12 -13 -9 -6 8 15 -10 27
-19 13 -4 -6 -11 -8 -16 -4 -5 3 -7 10 -4 15 4 5 1 9 -4 9 -6 0 -11 -8 -11
-17 -1 -17 -1 -17 -11 0 -5 9 -15 17 -20 17 -6 0 -8 -4 -5 -8 3 -5 -1 -9 -9
-9 -8 0 -15 4 -15 9 0 5 -9 6 -20 3 -11 -3 -20 -2 -20 3 0 6 -7 13 -16 16 -8
3 -12 2 -9 -4 8 -12 3 -12 -29 0 -18 6 -26 6 -26 -1 0 -6 -5 -7 -10 -4 -6 4
-7 12 -3 18 4 7 0 6 -10 -2 -11 -9 -17 -10 -17 -2 0 6 -5 11 -11 11 -5 0 -8
-4 -5 -8 2 -4 -4 -8 -15 -8 -12 0 -18 5 -14 13 3 10 0 11 -13 4 -11 -6 -24 -6
-32 -1 -8 5 -17 7 -20 5 -4 -2 -7 1 -8 8 -6 51 -13 73 -27 83 -12 9 -13 13 -3
17 11 4 11 6 0 6 -7 1 -10 6 -7 11 3 6 2 10 -4 10 -5 0 -8 9 -6 20 3 13 0 18
-7 14 -7 -5 -9 0 -6 14 4 12 1 25 -4 29 -7 4 -8 1 -3 -7 6 -9 4 -11 -4 -6 -7
5 -10 14 -7 22 3 8 1 14 -4 14 -5 0 -14 18 -20 40 -6 21 -17 45 -25 53 -11 11
-11 17 -2 27 9 10 9 11 0 6 -16 -9 -42 31 -36 55 3 10 9 17 13 14 7 -4 23 31
21 47 0 4 7 4 16 1 12 -5 15 -2 10 10 -6 16 3 22 26 18 4 -1 2 9 -4 21 -12 22
-11 22 6 8 11 -9 16 -10 11 -2 -4 6 -2 12 3 12 6 0 10 6 9 13 -2 6 2 11 9 10
8 -2 10 4 6 14 -5 12 -3 14 7 8 10 -6 12 -4 7 9 -4 9 -3 15 2 12 5 -3 15 2 22
11 12 14 12 16 -1 9 -8 -5 1 6 20 25 19 18 34 36 32 41 -1 4 6 8 15 8 15 0 16
2 3 10 -13 8 -12 10 3 10 9 0 16 6 15 13 -2 6 3 11 10 9 8 -1 12 3 10 10 -3 7
5 21 16 31 12 10 21 24 21 30 1 7 6 11 13 9 11 -2 17 11 13 32 -1 5 5 6 13 3
10 -4 14 0 11 14 -2 11 0 17 4 14 5 -2 15 3 22 12 10 11 10 14 2 9 -9 -5 -11
-2 -7 9 5 13 9 13 22 3 13 -11 14 -11 8 0 -4 7 -2 19 4 27 6 8 8 20 4 27 -6
10 -4 10 9 0 14 -12 16 -11 12 7 -2 11 -1 20 3 18 4 -1 8 2 9 7 1 5 7 13 15
17 10 7 10 9 0 9 -7 0 -10 5 -7 10 4 6 11 8 17 4 5 -3 2 9 -8 27 -15 30 -15
32 -1 20 15 -12 16 -10 3 25 -8 22 -18 38 -24 37 -5 -1 -8 8 -5 20 4 18 3 19
-6 7 -9 -12 -11 -11 -11 8 0 13 -4 20 -10 17 -9 -5 -15 15 -11 37 0 5 -2 7 -7
7 -20 -3 -32 2 -32 15 0 7 -12 21 -26 31 -14 9 -23 19 -21 22 9 8 -37 51 -47
45 -5 -3 -7 2 -3 11 6 16 -3 22 -26 18 -5 -1 -6 2 -3 7 2 4 -6 16 -19 26 -14
10 -22 22 -19 27 5 8 -9 13 -27 11 -4 -1 -6 6 -5 16 0 9 -9 21 -21 27 -13 5
-23 15 -23 21 0 6 -8 18 -17 25 -17 13 -17 13 -3 -6 14 -18 14 -19 -2 -7 -10
8 -20 22 -23 33 -4 10 -12 19 -20 19 -7 0 -16 7 -19 16 -3 8 -10 12 -16 9 -6
-4 -7 1 -3 11 5 14 3 16 -12 10 -11 -4 -16 -4 -12 0 3 4 -5 17 -19 29 -15 13
-23 28 -20 34 4 6 3 11 -3 11 -5 0 -11 -6 -14 -12 -2 -7 -8 -1 -11 13 -5 17 8
85 39 205 173 663 207 807 193 819 -10 10 -77 -6 -343 -82z m340 -1163 c3 -5
1 -10 -4 -10 -6 0 -11 5 -11 10 0 6 2 10 4 10 3 0 8 -4 11 -10z m-2197 -123
c7 -5 12 -4 12 3 0 7 6 8 18 2 9 -5 38 -8 65 -7 26 0 47 -2 47 -5 0 -3 17 -7
38 -8 48 -2 64 -6 81 -16 10 -7 12 -6 6 4 -6 10 -4 11 6 4 8 -5 25 -10 39 -12
13 -2 27 -6 30 -10 3 -4 18 -8 34 -9 16 -1 37 -5 45 -9 9 -4 23 -8 31 -9 30
-4 165 -50 168 -58 2 -4 8 -5 13 -1 5 3 9 1 9 -5 0 -6 7 -8 15 -5 8 4 15 1 15
-6 0 -7 7 -10 15 -6 8 3 15 1 15 -5 0 -6 5 -7 10 -4 6 3 10 1 10 -4 0 -6 9
-11 20 -11 11 0 20 -5 20 -11 0 -5 5 -7 10 -4 6 3 10 1 10 -5 0 -7 7 -10 15
-6 8 3 15 2 15 -2 0 -5 16 -14 35 -22 19 -8 35 -17 35 -22 0 -4 9 -8 21 -8 13
0 18 -4 13 -12 -5 -8 -2 -9 9 -5 10 3 17 2 17 -4 0 -5 8 -13 18 -17 37 -15
112 -64 112 -74 0 -5 5 -6 10 -3 7 4 9 -3 4 -22 -8 -34 -60 -241 -108 -423
-96 -369 -250 -965 -291 -1125 -96 -375 -117 -453 -147 -555 -17 -58 -34 -109
-38 -113 -4 -4 -37 54 -74 130 -38 76 -129 253 -203 393 -75 140 -160 302
-191 360 -30 58 -58 110 -62 115 -4 6 -38 69 -75 140 -142 273 -487 871 -520
902 -52 49 -180 81 -395 98 -41 3 -89 8 -106 10 -17 3 -39 -1 -48 -8 -19 -14
-27 -41 -361 -1332 -114 -440 -215 -831 -225 -870 -10 -38 -44 -168 -75 -288
-58 -227 -72 -273 -76 -247 -1 8 -1 18 0 23 0 4 -6 7 -15 7 -8 0 -12 5 -9 10
3 6 1 10 -6 10 -7 0 -9 3 -6 6 4 4 -3 20 -14 35 -11 16 -17 29 -13 29 4 0 0 8
-8 18 -17 19 -32 53 -30 65 1 4 -3 7 -9 7 -5 0 -7 5 -4 10 3 6 1 10 -4 10 -6
0 -11 9 -11 19 0 11 -5 21 -10 23 -6 2 -12 13 -13 26 0 12 -6 22 -11 22 -5 0
-6 3 -3 7 4 3 2 12 -4 20 -6 7 -8 13 -3 13 5 0 3 4 -4 8 -7 5 -14 23 -15 40
-1 18 -5 32 -9 32 -5 0 -8 9 -8 19 0 11 -5 23 -10 26 -6 4 -8 10 -5 15 3 5 1
11 -4 15 -6 3 -8 12 -4 20 3 8 0 15 -5 15 -6 0 -11 9 -11 20 -1 11 -1 29 -2
40 0 11 -4 20 -9 20 -5 0 -7 9 -5 20 2 11 0 20 -4 20 -4 0 -7 10 -6 23 1 12
-2 28 -8 35 -5 6 -7 12 -3 12 3 0 1 12 -4 26 -7 18 -7 23 1 18 8 -5 8 -1 0 14
-6 11 -8 28 -5 36 4 10 1 16 -7 16 -11 0 -11 3 1 10 8 5 10 10 4 10 -6 0 -10
12 -10 28 1 15 -3 33 -8 40 -5 7 -4 12 3 12 9 0 9 5 1 20 -8 15 -8 20 2 20 8
0 9 3 3 8 -12 8 -14 201 -2 219 4 6 3 15 -3 18 -8 5 -7 11 1 21 9 11 8 14 -2
14 -9 0 -10 3 -4 8 6 4 10 25 10 47 0 22 2 44 4 50 3 5 6 23 7 40 2 16 6 46 9
65 4 19 8 43 8 53 1 9 4 17 7 17 3 0 6 13 7 28 1 15 7 41 14 57 7 17 13 41 14
55 1 14 3 25 4 25 2 0 4 11 7 24 2 14 9 30 15 38 6 7 8 13 4 13 -4 0 2 16 14
36 12 19 17 32 11 29 -6 -3 -7 1 -4 9 3 9 9 16 13 16 4 0 8 10 8 22 1 13 7 24
12 26 5 2 7 10 4 18 -3 8 -1 14 5 14 6 0 13 14 17 30 4 17 11 30 16 30 6 0 8
4 5 9 -3 5 5 25 19 45 13 20 22 36 18 36 -3 0 1 8 10 18 10 10 14 22 10 25 -3
4 -1 7 5 7 7 0 12 7 12 15 0 9 7 18 15 21 8 4 13 10 10 14 -3 4 2 13 10 20 8
7 12 16 9 21 -3 5 2 12 10 15 9 3 16 11 16 16 0 6 8 17 17 25 11 9 12 12 3 7
-9 -4 -7 2 5 13 11 11 29 33 40 48 11 16 26 34 33 41 6 7 12 17 12 22 0 5 14
21 32 36 17 14 29 26 25 26 -4 0 12 19 35 42 24 24 42 46 41 50 -2 5 2 8 8 8
6 0 20 11 31 25 11 14 23 23 27 20 5 -2 14 7 21 20 7 14 16 25 20 25 4 0 23
15 42 33 36 34 41 37 60 37 6 0 8 3 5 7 -4 3 3 13 16 22 12 9 23 13 24 11 2
-3 10 5 18 18 9 12 21 22 26 22 11 0 79 48 90 63 3 5 9 8 13 8 20 -3 26 0 20
11 -4 6 -3 8 3 5 6 -4 22 3 37 14 14 11 26 17 26 13 0 -4 8 0 18 9 10 10 22
14 25 10 4 -3 7 -1 7 5 0 7 7 12 15 12 8 0 22 8 32 18 10 9 27 17 38 17 11 0
25 6 32 15 7 8 13 11 13 6 0 -4 11 -1 25 8 14 9 30 14 35 11 6 -3 10 -1 10 4
0 6 9 11 20 11 11 0 20 4 20 9 0 5 8 8 18 6 9 -1 22 1 27 5 18 13 107 40 116
35 4 -3 11 0 14 6 4 5 13 8 21 5 8 -3 14 -2 14 3 0 5 17 11 38 14 56 9 66 12
81 21 11 7 12 6 6 -5 -7 -11 -6 -12 6 -3 8 6 27 11 43 12 16 1 35 7 42 12 8 8
14 8 19 0 5 -8 11 -8 21 1 11 9 17 9 29 -1 10 -8 15 -9 15 -2 0 6 21 12 48 14
92 6 277 3 290 -5z m-2568 -567 c0 -5 -2 -10 -4 -10 -3 0 -8 5 -11 10 -3 6 -1
10 4 10 6 0 11 -4 11 -10z m4210 -386 c0 -8 5 -14 12 -14 6 0 9 -3 5 -6 -5 -6
0 -15 31 -49 7 -8 11 -15 8 -15 -3 0 10 -26 27 -57 18 -32 41 -76 51 -98 10
-22 24 -53 32 -69 8 -16 14 -35 14 -43 0 -7 5 -13 12 -13 6 0 8 -3 5 -7 -4 -3
0 -17 9 -31 11 -17 12 -22 3 -16 -11 6 -12 5 -3 -7 15 -18 39 -91 36 -106 -2
-7 2 -13 9 -13 7 0 9 -9 6 -21 -4 -16 -2 -19 11 -14 12 4 14 3 6 -5 -8 -8 -7
-25 3 -63 18 -66 24 -94 26 -129 1 -15 4 -28 7 -28 5 0 6 -6 12 -112 2 -32 6
-58 10 -58 8 0 5 -27 -4 -36 -4 -3 -3 -16 1 -28 13 -34 12 -98 -1 -90 -7 5 -8
3 -2 -7 12 -20 13 -110 2 -102 -6 3 -5 -4 2 -16 9 -17 9 -26 -1 -37 -9 -11 -9
-14 0 -14 7 0 9 -5 5 -12 -4 -7 -9 -34 -11 -60 -4 -61 -6 -71 -18 -80 -6 -5
-4 -8 5 -8 13 0 13 -1 0 -10 -12 -8 -12 -10 -1 -10 11 0 11 -3 1 -15 -7 -8
-10 -22 -6 -30 3 -8 1 -15 -4 -15 -5 0 -7 -9 -5 -20 2 -11 0 -20 -5 -20 -5 0
-8 -15 -6 -34 1 -21 -2 -34 -8 -33 -6 1 -10 -9 -8 -22 2 -13 0 -21 -5 -18 -5
3 -9 -6 -8 -21 0 -15 -5 -38 -12 -52 -7 -14 -16 -40 -19 -57 -3 -18 -9 -33
-13 -33 -4 0 -8 -6 -9 -12 -3 -33 -10 -52 -20 -56 -6 -2 -9 -9 -6 -17 3 -7 0
-16 -5 -20 -6 -3 -9 -11 -6 -16 4 -5 2 -9 -3 -9 -5 0 -15 -18 -22 -40 -7 -22
-17 -40 -22 -40 -5 0 -7 -4 -3 -9 3 -5 -2 -17 -11 -25 -8 -9 -13 -16 -9 -16 3
0 -3 -13 -15 -30 -12 -17 -18 -30 -14 -30 4 0 -1 -6 -12 -14 -10 -8 -16 -17
-12 -21 7 -8 -13 -35 -22 -30 -3 2 -7 -6 -7 -18 -1 -12 -7 -23 -13 -25 -6 -2
-15 -15 -21 -29 -5 -15 -14 -21 -21 -17 -7 5 -8 3 -3 -5 4 -8 -2 -21 -14 -32
-12 -11 -19 -24 -16 -29 3 -5 -4 -12 -16 -15 -11 -4 -18 -9 -15 -12 3 -3 0
-11 -7 -18 -7 -7 -20 -24 -31 -39 -10 -14 -23 -23 -29 -19 -6 3 -7 1 -3 -5 4
-7 2 -12 -4 -12 -6 0 -9 -3 -7 -7 6 -10 -39 -53 -47 -46 -3 4 -6 1 -6 -6 0
-16 -25 -41 -40 -41 -6 0 -8 -5 -5 -10 3 -6 -1 -13 -9 -16 -9 -3 -16 -13 -16
-21 0 -8 -4 -11 -10 -8 -5 3 -10 1 -10 -4 0 -6 -7 -11 -16 -11 -8 0 -13 -4 -9
-9 3 -5 -4 -12 -15 -16 -11 -4 -18 -10 -15 -15 3 -5 -3 -11 -14 -15 -11 -3
-22 -12 -25 -20 -3 -8 -12 -15 -21 -15 -8 0 -15 -4 -15 -9 0 -5 -9 -13 -20
-16 -11 -4 -18 -11 -15 -16 4 -5 0 -9 -8 -9 -7 0 -23 -9 -35 -20 -12 -11 -26
-20 -32 -20 -5 0 -10 -5 -10 -11 0 -5 -13 -15 -30 -20 -16 -6 -30 -15 -30 -20
0 -5 -7 -9 -15 -9 -7 0 -19 -8 -24 -17 -6 -10 -11 -14 -11 -9 0 5 -7 3 -15 -4
-8 -7 -15 -9 -15 -4 0 5 -7 -2 -16 -15 -13 -18 -18 -20 -25 -10 -7 11 -9 11
-9 1 0 -7 -18 -19 -40 -28 -22 -9 -40 -21 -40 -26 0 -6 -9 -8 -20 -5 -13 3
-20 0 -20 -9 0 -8 -6 -11 -15 -8 -8 4 -15 1 -15 -6 0 -6 -4 -8 -10 -5 -5 3
-10 1 -10 -4 0 -6 -3 -10 -7 -10 -5 1 -11 0 -15 -1 -5 -1 -11 -3 -15 -5 -52
-14 -63 -19 -63 -29 0 -6 -5 -4 -10 4 -6 9 -10 10 -10 3 0 -7 -19 -17 -42 -24
-24 -6 -47 -14 -53 -17 -11 -7 -27 -10 -70 -14 -16 -2 -32 -6 -35 -10 -3 -4
-19 -9 -35 -12 -17 -3 -41 -8 -55 -11 -14 -3 -38 -8 -54 -10 -15 -2 -31 -6
-34 -9 -3 -3 -12 0 -20 7 -13 9 -14 9 -8 -1 5 -9 -3 -12 -31 -13 -86 -3 -99
-5 -110 -12 -8 -5 -13 -3 -13 4 0 9 -3 9 -14 0 -10 -8 -16 -9 -21 -1 -3 6 -12
7 -18 3 -19 -12 -101 -11 -109 1 -6 8 -8 8 -8 0 0 -15 -51 -15 -69 0 -12 8
-13 8 -7 -1 4 -7 3 -13 -3 -13 -5 0 -13 5 -16 10 -5 8 -11 7 -21 -1 -11 -9
-14 -9 -14 1 0 10 -3 10 -14 1 -9 -7 -17 -8 -20 -2 -3 5 -17 8 -31 6 -14 -1
-28 2 -31 6 -3 5 -10 9 -15 9 -6 0 -7 -5 -3 -11 4 -8 0 -8 -15 0 -11 7 -21 9
-21 7 0 -3 -12 -1 -26 4 -19 8 -31 7 -42 -2 -12 -10 -14 -10 -8 0 5 8 0 12
-13 13 -23 2 -40 5 -43 9 -2 1 -12 4 -23 6 -40 6 -55 10 -61 16 -3 4 -12 4
-20 1 -8 -3 -14 -1 -14 5 0 5 -11 8 -25 7 -14 -2 -25 0 -25 4 0 4 -25 14 -55
21 -30 7 -52 16 -50 21 3 4 -6 6 -20 4 -14 -1 -25 2 -25 7 0 5 -4 6 -10 3 -5
-3 -10 -1 -10 4 0 6 -7 11 -15 11 -8 0 -23 4 -33 10 -9 5 -51 25 -93 45 -42
19 -93 46 -113 60 -21 14 -34 20 -30 13 4 -7 -3 -3 -15 10 -12 12 -28 22 -36
22 -8 0 -15 5 -15 10 0 6 -7 10 -15 10 -8 0 -15 5 -15 10 0 6 -7 10 -15 10 -8
0 -15 5 -15 10 0 6 -7 10 -15 10 -8 0 -15 5 -15 11 0 5 -4 7 -10 4 -5 -3 -10
1 -10 10 0 9 -4 14 -9 11 -5 -4 -7 2 -5 11 4 18 270 1044 453 1752 51 195 96
361 100 369 6 10 18 -10 42 -69 37 -94 150 -319 349 -694 73 -137 164 -311
203 -385 38 -74 91 -171 117 -215 26 -44 123 -213 215 -375 92 -162 177 -306
189 -319 25 -28 83 -56 149 -70 81 -19 165 -29 369 -46 25 -2 42 3 50 13 7 8
29 78 49 156 50 193 274 1061 424 1636 68 261 158 608 199 770 42 162 79 301
81 308 6 16 25 6 25 -14z"/>
<path d="M1360 2355 c-7 -9 -8 -15 -2 -15 5 0 12 7 16 15 3 8 4 15 2 15 -2 0
-9 -7 -16 -15z"/>
<path d="M6085 2110 c3 -5 8 -10 11 -10 2 0 4 5 4 10 0 6 -5 10 -11 10 -5 0
-7 -4 -4 -10z"/>
</g>
</svg>
